<?xml version="1.0" encoding="utf-8"?>
<!-- Generator: Adobe Illustrator 27.5.0, SVG Export Plug-In . SVG Version: 6.00 Build 0)  -->
<svg version="1.1" id="Layer_1" xmlns="http://www.w3.org/2000/svg" xmlns:xlink="http://www.w3.org/1999/xlink" x="0px" y="0px"
	 viewBox="0 0 841.89 707.964" style="enable-background:new 0 0 841.89 707.964;" xml:space="preserve">
<g>
	<g>
		<g>
			<g>
				<g>
					<g>
						
							<path style="fill:#E4EEF2;stroke:#284356;stroke-width:5;stroke-linecap:round;stroke-linejoin:round;stroke-miterlimit:10;" d="
							M622.119,595.296H279.475V401.271c0-9.117,7.394-16.512,16.517-16.512h309.614c9.121,0,16.514,7.395,16.514,16.512V595.296z"
							/>
						<rect x="297" y="406.863" style="fill:#1B9ACC;" width="307.588" height="166.33"/>
						
							<path style="fill:#E4EEF2;stroke:#284356;stroke-width:5;stroke-linecap:round;stroke-linejoin:round;stroke-miterlimit:10;" d="
							M648.042,605.343c-5.751,5.463-13.428,8.529-21.363,8.529H276.813c-7.972,0-15.722-2.879-21.759-8.094l-8.643-7.469
							c-1.615-1.394-0.626-4.049,1.504-4.049h405.596c2.233,0,3.319,2.732,1.7,4.269L648.042,605.343z"/>
						<path style="fill:#284356;" d="M389.388,594.074l8.034,6.504c4.142,3.356,9.341,5.191,14.674,5.191H489.5
							c5.33,0,10.53-1.836,14.674-5.191l8.03-6.504H389.388z"/>
					</g>
					
						<line style="fill:none;stroke:#284356;stroke-width:5;stroke-linecap:round;stroke-linejoin:round;stroke-miterlimit:10;" x1="41.079" y1="613.872" x2="808.745" y2="613.872"/>
				</g>
				
					<line style="fill:#FFFFFF;stroke:#284356;stroke-width:4;stroke-linecap:round;stroke-linejoin:round;stroke-miterlimit:10;" x1="187.075" y1="531.257" x2="237.46" y2="531.257"/>
				
					<line style="fill:#FFFFFF;stroke:#284356;stroke-width:4;stroke-linecap:round;stroke-linejoin:round;stroke-miterlimit:10;" x1="251.315" y1="531.257" x2="261.519" y2="531.257"/>
				
					<line style="fill:#FFFFFF;stroke:#284356;stroke-width:4;stroke-linecap:round;stroke-linejoin:round;stroke-miterlimit:10;" x1="527.969" y1="285.863" x2="578.354" y2="285.863"/>
				
					<line style="fill:#FFFFFF;stroke:#284356;stroke-width:4;stroke-linecap:round;stroke-linejoin:round;stroke-miterlimit:10;" x1="592.209" y1="285.863" x2="602.412" y2="285.863"/>
				
					<line style="fill:#FFFFFF;stroke:#284356;stroke-width:4;stroke-linecap:round;stroke-linejoin:round;stroke-miterlimit:10;" x1="541.132" y1="205.749" x2="566.324" y2="205.749"/>
				
					<line style="fill:#FFFFFF;stroke:#284356;stroke-width:4;stroke-linecap:round;stroke-linejoin:round;stroke-miterlimit:10;" x1="580.18" y1="205.749" x2="590.383" y2="205.749"/>
				
					<line style="fill:#FFFFFF;stroke:#284356;stroke-width:4;stroke-linecap:round;stroke-linejoin:round;stroke-miterlimit:10;" x1="341.915" y1="271.756" x2="367.108" y2="271.756"/>
				
					<line style="fill:#FFFFFF;stroke:#284356;stroke-width:4;stroke-linecap:round;stroke-linejoin:round;stroke-miterlimit:10;" x1="380.963" y1="271.756" x2="391.167" y2="271.756"/>
				
					<line style="fill:#FFFFFF;stroke:#284356;stroke-width:4;stroke-linecap:round;stroke-linejoin:round;stroke-miterlimit:10;" x1="313.604" y1="223.53" x2="374.036" y2="223.53"/>
				
					<line style="fill:#FFFFFF;stroke:#284356;stroke-width:4;stroke-linecap:round;stroke-linejoin:round;stroke-miterlimit:10;" x1="308.503" y1="207.482" x2="318.706" y2="207.482"/>
				
					<line style="fill:#FFFFFF;stroke:#284356;stroke-width:4;stroke-linecap:round;stroke-linejoin:round;stroke-miterlimit:10;" x1="290.042" y1="223.53" x2="300.245" y2="223.53"/>
				
					<line style="fill:#FFFFFF;stroke:#284356;stroke-width:4;stroke-linecap:round;stroke-linejoin:round;stroke-miterlimit:10;" x1="328.393" y1="246.363" x2="386.065" y2="246.363"/>
				
					<line style="fill:#FFFFFF;stroke:#284356;stroke-width:4;stroke-linecap:round;stroke-linejoin:round;stroke-miterlimit:10;" x1="578.354" y1="261.973" x2="598.06" y2="261.973"/>
				
					<line style="fill:#FFFFFF;stroke:#284356;stroke-width:4;stroke-linecap:round;stroke-linejoin:round;stroke-miterlimit:10;" x1="611.916" y1="261.973" x2="705.412" y2="261.973"/>
				
					<line style="fill:#FFFFFF;stroke:#284356;stroke-width:4;stroke-linecap:round;stroke-linejoin:round;stroke-miterlimit:10;" x1="208.835" y1="561.863" x2="261.519" y2="561.863"/>
				
					<line style="fill:#FFFFFF;stroke:#284356;stroke-width:4;stroke-linecap:round;stroke-linejoin:round;stroke-miterlimit:10;" x1="158.276" y1="561.863" x2="178.46" y2="561.863"/>
				
					<line style="fill:#FFFFFF;stroke:#284356;stroke-width:4;stroke-linecap:round;stroke-linejoin:round;stroke-miterlimit:10;" x1="214.158" y1="502.792" x2="264.542" y2="502.792"/>
				
					<line style="fill:#FFFFFF;stroke:#284356;stroke-width:4;stroke-linecap:round;stroke-linejoin:round;stroke-miterlimit:10;" x1="233.555" y1="363.981" x2="283.94" y2="363.981"/>
				
					<line style="fill:#FFFFFF;stroke:#284356;stroke-width:4;stroke-linecap:round;stroke-linejoin:round;stroke-miterlimit:10;" x1="297.795" y1="363.981" x2="307.999" y2="363.981"/>
				
					<line style="fill:#FFFFFF;stroke:#284356;stroke-width:4;stroke-linecap:round;stroke-linejoin:round;stroke-miterlimit:10;" x1="323.366" y1="342.316" x2="353.094" y2="342.316"/>
				
					<line style="fill:#FFFFFF;stroke:#284356;stroke-width:4;stroke-linecap:round;stroke-linejoin:round;stroke-miterlimit:10;" x1="371.484" y1="342.316" x2="458.144" y2="342.316"/>
				
					<line style="fill:#FFFFFF;stroke:#284356;stroke-width:4;stroke-linecap:round;stroke-linejoin:round;stroke-miterlimit:10;" x1="277.013" y1="342.316" x2="289.608" y2="342.316"/>
				
					<line style="fill:#FFFFFF;stroke:#284356;stroke-width:4;stroke-linecap:round;stroke-linejoin:round;stroke-miterlimit:10;" x1="643.183" y1="382.625" x2="653.385" y2="382.625"/>
				
					<line style="fill:#FFFFFF;stroke:#284356;stroke-width:4;stroke-linecap:round;stroke-linejoin:round;stroke-miterlimit:10;" x1="643.183" y1="402.431" x2="710.769" y2="402.431"/>
				
					<line style="fill:#FFFFFF;stroke:#284356;stroke-width:4;stroke-linecap:round;stroke-linejoin:round;stroke-miterlimit:10;" x1="744.383" y1="402.431" x2="763.245" y2="402.431"/>
				
					<line style="fill:#FFFFFF;stroke:#284356;stroke-width:4;stroke-linecap:round;stroke-linejoin:round;stroke-miterlimit:10;" x1="626.681" y1="367.761" x2="656.409" y2="367.761"/>
				
					<line style="fill:#FFFFFF;stroke:#284356;stroke-width:4;stroke-linecap:round;stroke-linejoin:round;stroke-miterlimit:10;" x1="674.8" y1="367.761" x2="687.394" y2="367.761"/>
				
					<line style="fill:#FFFFFF;stroke:#284356;stroke-width:4;stroke-linecap:round;stroke-linejoin:round;stroke-miterlimit:10;" x1="706.961" y1="578.394" x2="717.164" y2="578.394"/>
				
					<line style="fill:#FFFFFF;stroke:#284356;stroke-width:4;stroke-linecap:round;stroke-linejoin:round;stroke-miterlimit:10;" x1="690.459" y1="563.531" x2="720.186" y2="563.531"/>
				
					<line style="fill:#FFFFFF;stroke:#284356;stroke-width:4;stroke-linecap:round;stroke-linejoin:round;stroke-miterlimit:10;" x1="701.796" y1="548.919" x2="737.232" y2="548.919"/>
				
					<line style="fill:#FFFFFF;stroke:#284356;stroke-width:4;stroke-linecap:round;stroke-linejoin:round;stroke-miterlimit:10;" x1="731.849" y1="563.531" x2="739.941" y2="563.531"/>
			</g>
			<g>
				
					<polygon style="fill:#FFFFFF;stroke:#284356;stroke-width:3;stroke-linecap:round;stroke-linejoin:round;stroke-miterlimit:10;" points="
					449.832,296.086 333.197,362.435 333.197,372.015 568.393,372.015 568.393,362.728 				"/>
				
					<rect x="343.386" y="364.756" style="fill:#EBF4F7;stroke:#284356;stroke-width:3;stroke-linecap:round;stroke-linejoin:round;stroke-miterlimit:10;" width="214.818" height="44.935"/>
				
					<rect x="359.41" y="404.644" style="fill:#EBF4F7;stroke:#284356;stroke-width:3;stroke-linecap:round;stroke-linejoin:round;stroke-miterlimit:10;" width="181.31" height="154.318"/>
				
					<rect x="495.484" y="424.582" style="fill:#14A797;stroke:#284356;stroke-width:3;stroke-linecap:round;stroke-linejoin:round;stroke-miterlimit:10;" width="36.862" height="99.371"/>
				
					<polygon style="fill:#EBF4F7;stroke:#284356;stroke-width:3;stroke-linecap:round;stroke-linejoin:round;stroke-miterlimit:10;" points="
					450.093,308.402 333.495,374.731 568.095,374.731 				"/>
				
					<polygon style="fill:#FFFFFF;stroke:#284356;stroke-width:3;stroke-linecap:round;stroke-linejoin:round;stroke-miterlimit:10;" points="
					450.477,323.744 396.664,354.35 504.926,354.35 				"/>
				
					<rect x="431.873" y="424.582" style="fill:#14A797;stroke:#284356;stroke-width:3;stroke-linecap:round;stroke-linejoin:round;stroke-miterlimit:10;" width="36.876" height="99.371"/>
				
					<rect x="495.484" y="424.582" style="fill:#14A797;stroke:#284356;stroke-width:3;stroke-linecap:round;stroke-linejoin:round;stroke-miterlimit:10;" width="36.862" height="99.371"/>
				
					<path style="fill:#FFFFFF;stroke:#284356;stroke-width:3;stroke-linecap:round;stroke-linejoin:round;stroke-miterlimit:10;" d="
					M541.556,523.419h-9.209v-96.221c2.92-1.066,5.011-3.875,5.011-7.158v-4.672h-46.641v4.672c0,3.201,1.968,5.932,4.768,7.066
					v96.312h-26.735v-96.25c2.895-1.088,4.943-3.867,4.943-7.129v-4.672h-46.636v4.672c0,3.232,1.998,5.961,4.816,7.088v96.291
					h-26.74v-96.271c2.876-1.098,4.903-3.865,4.903-7.107v-4.672h-46.65v4.672c0,3.232,2.029,6,4.882,7.107v96.271h-8.215
					c-4.207,0-7.625,3.414-7.625,7.621v4.674H549.18v-4.674C549.18,526.833,545.758,523.419,541.556,523.419z"/>
				<g>
					
						<line style="fill:#3DADDD;stroke:#284356;stroke-width:3;stroke-linecap:round;stroke-linejoin:round;stroke-miterlimit:10;" x1="375.568" y1="433.837" x2="375.568" y2="518.978"/>
					
						<line style="fill:#3DADDD;stroke:#284356;stroke-width:3;stroke-linecap:round;stroke-linejoin:round;stroke-miterlimit:10;" x1="387.381" y1="433.837" x2="387.381" y2="518.978"/>
					
						<line style="fill:#3DADDD;stroke:#284356;stroke-width:3;stroke-linecap:round;stroke-linejoin:round;stroke-miterlimit:10;" x1="399.195" y1="433.837" x2="399.195" y2="518.978"/>
				</g>
				<g>
					
						<line style="fill:#3DADDD;stroke:#284356;stroke-width:3;stroke-linecap:round;stroke-linejoin:round;stroke-miterlimit:10;" x1="438.01" y1="433.837" x2="438.01" y2="518.978"/>
					
						<line style="fill:#3DADDD;stroke:#284356;stroke-width:3;stroke-linecap:round;stroke-linejoin:round;stroke-miterlimit:10;" x1="449.822" y1="433.837" x2="449.822" y2="518.978"/>
					
						<line style="fill:#3DADDD;stroke:#284356;stroke-width:3;stroke-linecap:round;stroke-linejoin:round;stroke-miterlimit:10;" x1="461.638" y1="433.837" x2="461.638" y2="518.978"/>
				</g>
				<g>
					
						<line style="fill:#3DADDD;stroke:#284356;stroke-width:3;stroke-linecap:round;stroke-linejoin:round;stroke-miterlimit:10;" x1="503.277" y1="433.837" x2="503.277" y2="518.978"/>
					
						<line style="fill:#3DADDD;stroke:#284356;stroke-width:3;stroke-linecap:round;stroke-linejoin:round;stroke-miterlimit:10;" x1="515.091" y1="433.837" x2="515.091" y2="518.978"/>
					
						<line style="fill:#3DADDD;stroke:#284356;stroke-width:3;stroke-linecap:round;stroke-linejoin:round;stroke-miterlimit:10;" x1="526.904" y1="433.837" x2="526.904" y2="518.978"/>
				</g>
				
					<rect x="333.197" y="402.431" style="fill:#FFFFFF;stroke:#284356;stroke-width:3;stroke-linecap:round;stroke-linejoin:round;stroke-miterlimit:10;" width="235.195" height="14.518"/>
				
					<rect x="333.197" y="364.756" style="fill:#FFFFFF;stroke:#284356;stroke-width:3;stroke-linecap:round;stroke-linejoin:round;stroke-miterlimit:10;" width="235.195" height="14.518"/>
				
					<rect x="335.45" y="534.646" style="fill:#FFFFFF;stroke:#284356;stroke-width:3;stroke-linecap:round;stroke-linejoin:round;stroke-miterlimit:10;" width="230.688" height="12.85"/>
				
					<rect x="324.374" y="547.496" style="fill:#FFFFFF;stroke:#284356;stroke-width:3;stroke-linecap:round;stroke-linejoin:round;stroke-miterlimit:10;" width="252.839" height="12.848"/>
				
					<rect x="312.968" y="560.343" style="fill:#FFFFFF;stroke:#284356;stroke-width:3;stroke-linecap:round;stroke-linejoin:round;stroke-miterlimit:10;" width="275.653" height="12.85"/>
				<path style="fill:none;stroke:#284356;stroke-width:3;stroke-linecap:round;stroke-linejoin:round;stroke-miterlimit:10;" d="
					M427.457,384.318v12.757c0,0,8.028,1.493,8.028-3.327c0-2.41-1.712-3.412-2.784-3.412c-1.795,0-5.092,0.018-5.092,0.018
					s3.412-0.026,4.977-0.076c0.961-0.031,2.24-1.102,2.117-3.422C434.499,383.019,427.457,384.318,427.457,384.318z"/>
				
					<polyline style="fill:none;stroke:#284356;stroke-width:3;stroke-linecap:round;stroke-linejoin:round;stroke-miterlimit:10;" points="
					438.657,397.206 443.87,384.48 448.856,397.292 				"/>
				
					<line style="fill:none;stroke:#284356;stroke-width:3;stroke-linecap:round;stroke-linejoin:round;stroke-miterlimit:10;" x1="440.256" y1="393.205" x2="447.223" y2="393.205"/>
				
					<polyline style="fill:none;stroke:#284356;stroke-width:3;stroke-linecap:round;stroke-linejoin:round;stroke-miterlimit:10;" points="
					452.714,397.742 452.714,384.293 461.675,397.742 461.675,384.107 				"/>
				
					<line style="fill:none;stroke:#284356;stroke-width:3;stroke-linecap:round;stroke-linejoin:round;stroke-miterlimit:10;" x1="466.749" y1="384.107" x2="466.749" y2="397.742"/>
				
					<polyline style="fill:none;stroke:#284356;stroke-width:3;stroke-linecap:round;stroke-linejoin:round;stroke-miterlimit:10;" points="
					475.102,383.902 469.84,390.693 467.057,390.693 				"/>
				
					<line style="fill:none;stroke:#284356;stroke-width:3;stroke-linecap:round;stroke-linejoin:round;stroke-miterlimit:10;" x1="469.861" y1="390.734" x2="475.615" y2="397.742"/>
			</g>
		</g>
		<g>
			<g>
				<path style="fill:#F4CFB3;stroke:#284356;stroke-width:4;" d="M84.62,441.513c7.407-10.084,27.103-42.189,27.103-42.189
					c2.897-2.867,9.93-7.417,15.521-2.846c5.692,4.656-0.187,18.664-0.187,18.664c3.618-4.141,15.112-19.269,22.76-11.123
					c5.518,5.869,0.519,12.674,0.519,12.674s4.492-3.877,9.314,0.389c5.814,5.15-0.779,13.965-0.779,13.965l-3.67,5.902
					c0,0,3.808-2.947,8.283,1.81c4.054,4.316-1.506,12.08-1.506,12.08l-21.712,34.014c0.055,11.445,0,15.688,0,24.961
					c0,22.76-12.173,25.734-12.173,25.734v37.375l-52.123,0.129V470.625C75.969,470.625,74.904,454.736,84.62,441.513z"/>
				<g>
					<path style="fill:#F9F9F9;stroke:#284356;stroke-width:4;" d="M205.914,281.449c12.272,0,22.251,9.984,22.251,22.252v167.962
						c0,12.273-9.979,22.258-22.251,22.258h-84.496c-12.273,0-22.255-9.984-22.255-22.258V303.701
						c0-12.268,9.982-22.252,22.255-22.252H205.914z"/>
					<rect x="111.255" y="300.967" style="fill:#1B9ACC;" width="104.379" height="161.372"/>
					<path style="fill:#FFFFFF;stroke:#284356;stroke-width:3;" d="M161.685,470.511c-3.605,0-6.539,2.92-6.539,6.539
						c0,3.609,2.934,6.541,6.539,6.541c3.624,0,6.545-2.932,6.545-6.541C168.229,473.431,165.309,470.511,161.685,470.511z"/>
				</g>
				<path style="fill:#F4CFB3;stroke:#284356;stroke-width:4;stroke-linecap:round;" d="M88.701,479.247l37.916-35.496
					c0,0,7.023-8.115,14.197-1.172c6.1,5.9,2.342,14.117-1.544,18.563l-23.079,28.494v19.527c0,0,1.166,12.586-3.879,18.082
					c-3.225,3.51-6.606,5.66-9.571,6.621"/>
				<path style="fill:#F29471;stroke:#284356;stroke-width:4;stroke-linecap:round;stroke-miterlimit:10;" d="M133.686,585.683
					c1.016-0.004,1.834-0.818,1.834-1.832l-0.096-28.877c-0.002-1.012-0.825-1.828-1.837-1.826l-64.102,0.195
					c-1.012,0.002-1.84,0.828-1.832,1.842l0.088,28.869c0.004,1.018,0.828,1.83,1.839,1.828L133.686,585.683z"/>
				<path style="fill:#F29471;stroke:#284356;stroke-width:4;stroke-linecap:round;stroke-miterlimit:10;" d="M144.032,611.005
					l-0.168-22.244c0-7.576-7.335-9.338-8.343-9.332l-67.794,0.234c-3.91,0-3.912,5.211-3.91,6.219l0.169,25.367"/>
			</g>
			<g>
				<g>
					<g>
						<g>
							<g>
								
									<rect x="190.848" y="371.153" style="fill:#EBF4F7;stroke:#284356;stroke-width:1.5;stroke-linecap:round;stroke-linejoin:round;stroke-miterlimit:10;" width="12.319" height="33.208"/>
								
									<polygon style="fill:#EBF4F7;stroke:#284356;stroke-width:1.5;stroke-linecap:round;stroke-linejoin:round;stroke-miterlimit:10;" points="
									163.21,340.61 124.245,362.776 202.643,362.776 								"/>
								
									<polygon style="fill:#EBF4F7;stroke:#284356;stroke-width:1.5;stroke-linecap:round;stroke-linejoin:round;stroke-miterlimit:10;" points="
									143.497,357.684 163.225,346.46 183.191,357.684 								"/>
								
									<rect x="118.054" y="408.466" style="fill:#EBF4F7;stroke:#284356;stroke-width:1.5;stroke-linecap:round;stroke-linejoin:round;stroke-miterlimit:10;" width="90.781" height="10.035"/>
								
									<rect x="158.276" y="371.153" style="fill:#EBF4F7;stroke:#284356;stroke-width:1.5;stroke-linecap:round;stroke-linejoin:round;stroke-miterlimit:10;" width="12.321" height="33.208"/>
								
									<rect x="125.776" y="371.153" style="fill:#EBF4F7;stroke:#284356;stroke-width:1.5;stroke-linecap:round;stroke-linejoin:round;stroke-miterlimit:10;" width="12.321" height="33.208"/>
							</g>
						</g>
					</g>
					
						<rect x="123.178" y="368.493" style="fill:#EBF4F7;stroke:#284356;stroke-width:1.5;stroke-linecap:round;stroke-linejoin:round;stroke-miterlimit:10;" width="17.517" height="5.389"/>
					
						<rect x="123.178" y="403.078" style="fill:#EBF4F7;stroke:#284356;stroke-width:1.5;stroke-linecap:round;stroke-linejoin:round;stroke-miterlimit:10;" width="17.517" height="5.389"/>
					
						<rect x="155.678" y="368.493" style="fill:#EBF4F7;stroke:#284356;stroke-width:1.5;stroke-linecap:round;stroke-linejoin:round;stroke-miterlimit:10;" width="17.517" height="5.389"/>
					
						<rect x="155.678" y="403.078" style="fill:#EBF4F7;stroke:#284356;stroke-width:1.5;stroke-linecap:round;stroke-linejoin:round;stroke-miterlimit:10;" width="17.517" height="5.389"/>
					
						<rect x="188.249" y="368.493" style="fill:#EBF4F7;stroke:#284356;stroke-width:1.5;stroke-linecap:round;stroke-linejoin:round;stroke-miterlimit:10;" width="17.516" height="5.389"/>
					
						<rect x="188.249" y="403.078" style="fill:#EBF4F7;stroke:#284356;stroke-width:1.5;stroke-linecap:round;stroke-linejoin:round;stroke-miterlimit:10;" width="17.516" height="5.389"/>
				</g>
				
					<rect x="120.158" y="360.783" style="fill:#EBF4F7;stroke:#284356;stroke-width:1.5;stroke-linecap:round;stroke-linejoin:round;stroke-miterlimit:10;" width="86.573" height="7.71"/>
			</g>
		</g>
		<g>
			<path style="fill:#FDFEFF;stroke:#284356;stroke-width:4;stroke-miterlimit:10;" d="M767.804,421.117
				c11.016,0,19.941,8.928,19.941,19.941v56.619c0,11.014-8.926,19.941-19.941,19.941H616.104c-11.014,0-19.941-8.928-19.941-19.941
				v-56.619c0-11.014,8.928-19.941,19.941-19.941H767.804z"/>
			<rect x="609.339" y="453.876" style="fill:#284356;" width="2.849" height="18.52"/>
			<path style="fill:#284356;" d="M610.763,477.025c1.968,0,3.56,1.592,3.56,3.56c0,1.967-1.593,3.563-3.56,3.563
				c-1.966,0-3.561-1.596-3.561-3.563C607.202,478.617,608.797,477.025,610.763,477.025z"/>
			<path style="fill:#FDFEFF;stroke:#284356;stroke-width:4;stroke-miterlimit:10;" d="M769.227,459.929
				c5.113,0,9.259,4.148,9.259,9.262c0,5.111-4.146,9.258-9.259,9.258c-5.113,0-9.26-4.147-9.26-9.258
				C759.968,464.078,764.114,459.929,769.227,459.929z"/>
			<rect x="623.274" y="427.169" style="fill:#1B9ACC;" width="127.437" height="84.041"/>
			<g>
				<g>
					<g>
						<g>
							<g>
								
									<rect x="713.124" y="461.751" style="fill:#EBF4F7;stroke:#284356;stroke-width:1.5;stroke-linecap:round;stroke-linejoin:round;stroke-miterlimit:10;" width="11.166" height="30.1"/>
								
									<polygon style="fill:#EBF4F7;stroke:#284356;stroke-width:1.5;stroke-linecap:round;stroke-linejoin:round;stroke-miterlimit:10;" points="
									688.073,434.068 652.757,454.158 723.814,454.158 								"/>
								
									<polygon style="fill:#EBF4F7;stroke:#284356;stroke-width:1.5;stroke-linecap:round;stroke-linejoin:round;stroke-miterlimit:10;" points="
									670.206,449.542 688.087,439.371 706.185,449.542 								"/>
								
									<rect x="647.146" y="495.572" style="fill:#EBF4F7;stroke:#284356;stroke-width:1.5;stroke-linecap:round;stroke-linejoin:round;stroke-miterlimit:10;" width="82.281" height="9.096"/>
								
									<rect x="683.602" y="461.751" style="fill:#EBF4F7;stroke:#284356;stroke-width:1.5;stroke-linecap:round;stroke-linejoin:round;stroke-miterlimit:10;" width="11.168" height="30.1"/>
								
									<rect x="654.146" y="461.751" style="fill:#EBF4F7;stroke:#284356;stroke-width:1.5;stroke-linecap:round;stroke-linejoin:round;stroke-miterlimit:10;" width="11.167" height="30.1"/>
							</g>
						</g>
					</g>
					
						<rect x="651.79" y="459.341" style="fill:#EBF4F7;stroke:#284356;stroke-width:1.5;stroke-linecap:round;stroke-linejoin:round;stroke-miterlimit:10;" width="15.877" height="4.885"/>
					
						<rect x="651.79" y="490.687" style="fill:#EBF4F7;stroke:#284356;stroke-width:1.5;stroke-linecap:round;stroke-linejoin:round;stroke-miterlimit:10;" width="15.877" height="4.885"/>
					
						<rect x="681.247" y="459.341" style="fill:#EBF4F7;stroke:#284356;stroke-width:1.5;stroke-linecap:round;stroke-linejoin:round;stroke-miterlimit:10;" width="15.877" height="4.885"/>
					
						<rect x="681.247" y="490.687" style="fill:#EBF4F7;stroke:#284356;stroke-width:1.5;stroke-linecap:round;stroke-linejoin:round;stroke-miterlimit:10;" width="15.877" height="4.885"/>
					
						<rect x="710.769" y="459.341" style="fill:#EBF4F7;stroke:#284356;stroke-width:1.5;stroke-linecap:round;stroke-linejoin:round;stroke-miterlimit:10;" width="15.875" height="4.885"/>
					
						<rect x="710.769" y="490.687" style="fill:#EBF4F7;stroke:#284356;stroke-width:1.5;stroke-linecap:round;stroke-linejoin:round;stroke-miterlimit:10;" width="15.875" height="4.885"/>
				</g>
				
					<rect x="649.053" y="452.351" style="fill:#EBF4F7;stroke:#284356;stroke-width:1.5;stroke-linecap:round;stroke-linejoin:round;stroke-miterlimit:10;" width="78.467" height="6.99"/>
			</g>
		</g>
		<g>
			<g>
				<g>
					<g>
						<g>
							<path style="fill:#E5BDA3;" d="M492.194,200.274c-0.939,0-1.914-0.079-2.895-0.235c-6.369-1.015-11.799-2.566-13.109-2.955
								l-14.356-0.005l-13.429-6.649l2.559-1.954c0.248-0.189,6.154-4.627,14.667-4.924c0.88-0.031,1.786-0.046,2.708-0.046
								c13.501,0,30.788,3.149,33.393,4.007c1.903,0.628,2.907,2.443,2.557,4.624C503.744,195.517,499.633,200.274,492.194,200.274z
								"/>
							<path style="fill:#284356;" d="M468.338,185.507c13.246-0.001,30.315,3.099,32.767,3.907c3.33,1.099-0.1,8.861-8.91,8.861
								c-0.814,0-1.675-0.066-2.581-0.21c-7.114-1.134-13.13-2.98-13.13-2.98l-14.182-0.005l-10.125-5.013
								c0,0,5.55-4.236,13.523-4.516C466.557,185.521,467.439,185.507,468.338,185.507 M468.34,181.507v4V181.507
								c-0.962,0-1.896,0.016-2.78,0.047c-9.142,0.32-15.542,5.129-15.81,5.334l-5.119,3.907l5.771,2.857l10.125,5.013l0.838,0.415
								l0.936,0.001l13.602,0.005c1.729,0.503,6.989,1.959,13.081,2.93c1.086,0.173,2.166,0.26,3.211,0.26
								c7.817,0,13.292-4.993,14.067-9.819c0.507-3.154-1.063-5.902-3.904-6.84C499.351,184.624,482.01,181.507,468.34,181.507
								L468.34,181.507z"/>
						</g>
					</g>
					<g>
						<g>
							<path style="fill:#E5BDA3;" d="M496.739,215.878c-3.498,0-6.907-1.535-9.6-4.322c-3.917-4.063-6.168-8.239-6.901-9.724
								l-10.926-7.102l-23.685-9.016l6.83-1.354c0.401-0.08,9.912-1.95,16.191-1.95c1.774,0,3.138,0.148,4.166,0.451
								c5.814,1.718,17.728,13.157,19.068,14.456l0.078,0.081c2.338,2.536,8.878,9.49,11.038,11.191
								c1.124,0.887,1.541,2.243,1.091,3.541C503.337,214.302,500.245,215.878,496.739,215.878z"/>
							<path style="fill:#284356;" d="M468.649,184.41c1.451,0,2.709,0.107,3.6,0.37c5.51,1.628,18.242,13.974,18.242,13.974
								s8.512,9.234,11.272,11.407c1.689,1.333-1.057,3.718-5.023,3.718c-2.504,0-5.492-0.949-8.161-3.712
								c-4.58-4.75-6.776-9.703-6.776-9.703l-11.578-7.526l-17.377-6.614C452.847,186.323,462.494,184.411,468.649,184.41
								 M468.649,180.411c-6.474,0-16.171,1.907-16.58,1.988l-13.661,2.708l13.016,4.954l16.978,6.462l10.299,6.694
								c0.985,1.898,3.286,5.875,6.998,9.725c3.075,3.184,6.996,4.936,11.041,4.936c4.4,0,8.2-2.094,9.241-5.093
								c0.727-2.095,0.044-4.357-1.74-5.765c-1.83-1.441-7.6-7.498-10.808-10.978l-0.076-0.083l-0.081-0.078
								c-2.244-2.176-13.75-13.123-19.893-14.938C472.167,180.585,470.618,180.411,468.649,180.411L468.649,180.411z"/>
						</g>
					</g>
					<g>
						<g>
							<path style="fill:#E5BDA3;" d="M494.431,231.378c-1.747,0-7.756-0.576-11.72-7.988c-3.15-5.896-6.347-11.969-6.797-12.826
								l-7.217-10.552c-0.043-0.063-0.082-0.128-0.118-0.194l-8.859-16.764c-0.414-0.784-0.263-1.746,0.371-2.366
								c0.384-0.374,0.888-0.569,1.398-0.569c0.333,0,0.669,0.083,0.975,0.254c0.563,0.315,13.854,7.789,19.078,14.193
								c8.592,10.536,17.645,28.2,18.66,31.157c0.409,1.193,0.234,2.409-0.491,3.425
								C498.716,230.545,496.741,231.378,494.431,231.378z"/>
							<path style="fill:#284356;" d="M461.488,182.12c0,0,13.462,7.529,18.505,13.712c8.537,10.469,17.424,27.935,18.318,30.542
								c0.574,1.675-1.249,3.005-3.881,3.005c-3.059,0-7.209-1.795-9.956-6.932c-3.395-6.355-6.845-12.916-6.845-12.916
								l-7.282-10.647L461.488,182.12 M461.489,178.12c-1.02,0-2.029,0.39-2.796,1.138c-1.268,1.238-1.569,3.164-0.741,4.731
								l8.859,16.764c0.07,0.134,0.148,0.264,0.234,0.389l7.151,10.456c0.613,1.165,3.721,7.066,6.749,12.734
								c3.03,5.665,8.07,9.046,13.484,9.046c2.999,0,5.517-1.118,6.909-3.066c1.095-1.533,1.37-3.442,0.756-5.236
								c-1.074-3.131-10.108-20.866-19.003-31.772c-5.462-6.697-19.075-14.353-19.652-14.675
								C462.829,178.286,462.157,178.12,461.489,178.12L461.489,178.12z"/>
						</g>
					</g>
					<g>
						<g>
							<path style="fill:#F4CFB3;" d="M429.705,254.675c-5.539,0-8.239-7.694-10.335-14.907c-5.326-18.32-7.252-22.271-8.526-24.886
								c-0.281-0.577-0.532-1.092-0.778-1.665c-3.009-7.004-4.457-11.122-5.69-21.162c-1.244-10.113-4.654-18.552-4.689-18.636
								l-0.708-1.735l23.916-11.631l34.168,17.488c1.219,0.288,5.458,1.546,9.078,5.768c3.73,4.35,16.48,28.363,17.021,29.383
								l0.078,0.146l0.139,0.422c0.114,0.288,0.21,0.556,0.286,0.799c0.775,2.482-0.185,8.71-3.313,21.494
								c-0.201,0.82-0.339,1.378-0.375,1.566c-0.369,2.281-3.397,4.302-6.475,4.302c-1.9,0-6.521-0.859-8.384-8.812
								c-0.639-2.735,0.191-6.586,0.858-9.68c0.243-1.128,0.572-2.654,0.576-3.178c-1.613-4.793-9.805-17.433-22.845-17.433
								c-4.092,0.018-8.63,3.415-9.397,6.081l-0.111,0.386l-0.252,0.313c-0.065,0.082-6.065,9.454,2.057,29.943
								c2.022,5.101,1.634,11.986-3.066,14.699C431.864,254.361,430.776,254.675,429.705,254.675z"/>
							<path style="fill:#284356;" d="M422.872,162.288l33.512,17.152c0,0,4.471,0.776,8.238,5.171
								c3.629,4.231,16.773,29.018,16.773,29.018c0.011,0.032,0.009,0.062,0.012,0.092c0.144,0.343,0.262,0.656,0.348,0.933
								c1.11,3.555-3.595,21.176-3.749,22.124c-0.177,1.095-2.193,2.644-4.504,2.644c-2.403,0-5.125-1.673-6.437-7.268
								c-0.897-3.84,1.9-11.438,1.434-12.887c-1.617-5.036-10.4-18.947-24.791-18.948c-0.032,0-0.062,0-0.094,0
								c-5.012,0.022-10.225,4.052-11.225,7.527c-1.249,1.554-6.096,12.125,1.756,31.933c1.84,4.642,1.225,10.249-2.207,12.23
								c-0.794,0.458-1.537,0.666-2.233,0.666c-4.226,0-6.726-7.652-8.415-13.465c-6.477-22.279-8.02-23.598-9.387-26.781
								c-2.914-6.783-4.33-10.747-5.543-20.617c-1.294-10.523-4.822-19.148-4.822-19.148L422.872,162.288 M422.918,157.818
								l-1.795,0.873l-21.334,10.375l-3.373,1.64l1.42,3.472c0.032,0.079,3.346,8.298,4.554,18.122
								c1.26,10.25,2.82,14.682,5.838,21.708c0.271,0.63,0.536,1.174,0.817,1.751c1.245,2.553,3.126,6.412,8.404,24.568
								c1.777,6.114,4.751,16.348,12.256,16.348c1.427,0,2.851-0.404,4.232-1.201c5.673-3.274,6.257-11.289,3.927-17.169
								c-7.389-18.638-2.556-27.59-2.315-28.004l0.463-0.575l0.222-0.773c0.442-1.536,3.951-4.618,7.398-4.633h0.076
								c11.467,0.001,19.079,11.164,20.811,15.687c-0.087,0.594-0.319,1.674-0.498,2.503c-0.709,3.29-1.592,7.384-0.852,10.555
								c2.191,9.35,7.955,10.359,10.332,10.359c4.024,0,7.867-2.709,8.439-5.931c0.049-0.225,0.176-0.738,0.353-1.462
								c3.778-15.438,4.056-20.08,3.279-22.568c-0.089-0.286-0.198-0.592-0.33-0.925c-0.017-0.058-0.034-0.115-0.053-0.172
								l-0.105-0.315l-0.155-0.294c-1.367-2.577-13.463-25.308-17.271-29.749c-3.797-4.429-8.178-5.919-9.898-6.355l-33.066-16.924
								L422.918,157.818L422.918,157.818z"/>
						</g>
					</g>
					<path style="fill:#F29471;stroke:#284356;stroke-width:4;stroke-linecap:round;stroke-miterlimit:10;" d="M433.37,161.488
						L403.475,98.53l-36.934,17.961l30.392,62.946c0.207,0.418,0.715,0.688,1.127,0.488l34.958-17.23
						C433.432,162.49,433.576,161.902,433.37,161.488z"/>
					<path style="fill:#F29471;stroke:#284356;stroke-width:4;stroke-linecap:round;stroke-miterlimit:10;" d="M430.932,148.656
						l-29.896-62.958l-43.934,21.189l30.392,62.946c0.207,0.418,0.715,0.688,1.127,0.488l41.958-20.458
						C430.992,149.658,431.137,149.07,430.932,148.656z"/>
				</g>
				<path style="fill:#FFF2E9;" d="M422.852,244.297l4.376-0.803c1.27-0.231,2.542,0.497,2.865,1.747
					c0.657,2.549,2.232,6.731-0.939,7.39C429.154,252.631,425.802,252.67,422.852,244.297z"/>
			</g>
			<g>
				<g>
					<g>
						<path style="fill:#FCDFA6;stroke:#284356;stroke-width:4;stroke-linejoin:round;stroke-miterlimit:10;" d="M474.294,252.139
							c0,10.833-8.782,19.617-19.617,19.617c-10.838,0-19.623-8.784-19.623-19.617c0-10.838,8.785-19.624,19.623-19.624
							C465.512,232.515,474.294,241.301,474.294,252.139z"/>
					</g>
				</g>
				<g>
					<path style="fill:none;stroke:#284356;stroke-width:1.5;stroke-linecap:round;stroke-miterlimit:10;" d="M448.606,257.422
						c0,2.385,1.813,4.551,4.873,4.551h2.172c6.278,0,7.273-9.842,0-9.738l-2.172-0.207c-6.379,0.061-6.461-9.699,0-9.73h2.172
						c3.258,0,5.049,2.113,5.049,4.545"/>
					
						<line style="fill:none;stroke:#284356;stroke-width:1.5;stroke-linecap:round;stroke-miterlimit:10;" x1="454.676" y1="239.147" x2="454.676" y2="265.124"/>
				</g>
			</g>
		</g>
	</g>
	<g>
		
			<line style="fill:#F29471;stroke:#284356;stroke-width:4;stroke-linecap:round;stroke-miterlimit:10;" x1="79.774" y1="563.488" x2="79.774" y2="578.488"/>
		
			<line style="fill:#F29471;stroke:#284356;stroke-width:4;stroke-linecap:round;stroke-miterlimit:10;" x1="94.316" y1="563.488" x2="94.316" y2="578.488"/>
		
			<line style="fill:#F29471;stroke:#284356;stroke-width:4;stroke-linecap:round;stroke-miterlimit:10;" x1="108.858" y1="563.488" x2="108.858" y2="578.488"/>
		
			<line style="fill:#F29471;stroke:#284356;stroke-width:4;stroke-linecap:round;stroke-miterlimit:10;" x1="123.399" y1="563.488" x2="123.399" y2="578.488"/>
	</g>
	<g>
		
			<line style="fill:none;stroke:#284356;stroke-width:4;stroke-linecap:round;stroke-miterlimit:10;" x1="396.999" y1="166.386" x2="399.601" y2="171.995"/>
		
			<line style="fill:none;stroke:#284356;stroke-width:4;stroke-linecap:round;stroke-miterlimit:10;" x1="405.744" y1="162.33" x2="408.346" y2="167.938"/>
		
			<line style="fill:none;stroke:#284356;stroke-width:4;stroke-linecap:round;stroke-miterlimit:10;" x1="414.487" y1="158.275" x2="417.09" y2="163.883"/>
		
			<line style="fill:none;stroke:#284356;stroke-width:4;stroke-linecap:round;stroke-miterlimit:10;" x1="423.232" y1="154.218" x2="425.834" y2="159.827"/>
	</g>
</g>
</svg>
